<svg width="73" height="101" viewBox="0 0 73 101" fill="none" xmlns="http://www.w3.org/2000/svg">
<path d="M48.1345 36.7927L38.1337 46.1044L28.8504 27.3716L33.6461 16.6006C34.8582 14.4521 36.8405 14.4237 38.0526 16.6006L48.1345 36.7927Z" fill="#FFA000"/>
<path d="M38.1379 46.1004L0.729004 80.8944L28.8546 27.3716L38.1379 46.1004Z" fill="#F57F17"/>
<path d="M59.1002 22.5516C60.892 20.845 62.7365 21.4206 63.2027 23.8448L72.9278 80.4242L40.6714 99.7894C39.5404 100.422 36.5406 100.669 36.5406 100.669C36.5406 100.669 33.8124 100.337 32.7665 99.761L0.729004 80.8945L59.1002 22.5516Z" fill="#FFCA28"/>
<path d="M28.8545 27.3716L0.729004 80.8944L13.2635 2.66353C13.7337 0.239338 15.108 -0.0079453 16.3484 2.14059L28.8545 27.3716Z" fill="#FFA000"/>
</svg>
