<svg width="90" height="100" viewBox="0 0 90 100" fill="none" xmlns="http://www.w3.org/2000/svg">
<path fill-rule="evenodd" clip-rule="evenodd" d="M53.3608 11.5284L73.8956 23.3849C74.4884 22.7576 75.1688 22.2192 75.9155 21.7865C80.1741 19.3381 85.6062 20.7918 88.0799 25.0507C90.5283 29.3097 89.0746 34.7414 84.8157 37.2151C84.0745 37.642 83.2757 37.96 82.444 38.1595V61.8811C83.2667 62.0809 84.0567 62.3967 84.7903 62.8192C89.0746 65.2929 90.5283 70.725 88.0546 74.9839C85.6062 79.2425 80.1488 80.6962 75.8898 78.2482C75.0647 77.7748 74.3215 77.1714 73.6887 76.4612L53.2789 88.2447C53.5778 89.1498 53.7296 90.0969 53.7285 91.05C53.7285 95.9464 49.7504 99.9505 44.8284 99.9505C39.9063 99.9505 35.9282 95.9717 35.9282 91.05C35.9282 90.1751 36.0539 89.33 36.2883 88.5319L15.7591 76.6789C15.1727 77.2937 14.502 77.8221 13.7669 78.2482C9.48262 80.6962 4.05053 79.2425 1.60216 74.9839C-0.845855 70.725 0.607818 65.2929 4.86642 62.8192C5.60005 62.3967 6.39007 62.0807 7.21271 61.8807V38.1595C6.38098 37.96 5.58227 37.642 4.84107 37.2151C0.582126 34.7671 -0.871547 29.3097 1.57682 25.0507C4.02518 20.7918 9.48227 19.3381 13.7412 21.7865C14.4839 22.2169 15.1609 22.7519 15.7514 23.3748L36.2921 11.5153C36.0499 10.6934 35.9274 9.84101 35.9282 8.98426C35.9282 4.06288 39.9063 0.0841064 44.8284 0.0841064C49.7504 0.0841064 53.7285 4.06253 53.7285 8.98426C53.7285 9.86889 53.6001 10.7226 53.3608 11.5284ZM51.2215 15.1816L71.8052 27.0658C71.4774 28.2115 71.3834 29.4115 71.5288 30.5943C71.6741 31.7771 72.0558 32.9186 72.6513 33.9509C73.9043 36.1305 75.9454 37.5755 78.2108 38.1386V61.8897C78.0952 61.9179 77.9802 61.9488 77.866 61.9814L50.9823 15.4194C51.0635 15.3416 51.1434 15.2625 51.2215 15.1819V15.1816ZM38.68 15.4246L11.7966 61.9859C11.6804 61.9523 11.5635 61.921 11.446 61.8922V38.1386C13.7114 37.5755 15.7525 36.1305 17.0055 33.9509C17.6021 32.9166 17.9842 31.7727 18.1289 30.5875C18.2737 29.4023 18.1782 28.2001 17.8481 27.0526L38.4259 15.1718C38.5089 15.2576 38.5936 15.342 38.68 15.4242V15.4246ZM47.3153 17.5338L74.1924 64.0847C73.5768 64.6721 73.049 65.3453 72.6256 66.0834C72.2031 66.817 71.8873 67.6071 71.6875 68.4297H17.97C17.7699 67.607 17.4538 66.817 17.0312 66.0834C16.6062 65.3504 16.0795 64.6813 15.4667 64.0961L42.3491 17.5358C43.155 17.7679 43.9897 17.8852 44.8284 17.8844C45.6918 17.8844 46.5261 17.7622 47.3153 17.5338ZM51.4103 85.0541L71.8604 73.2469C71.7991 73.0542 71.7443 72.8594 71.6961 72.663H17.9585C17.93 72.7786 17.8991 72.8931 17.8661 73.0074L38.4162 84.8725C39.246 84.0096 40.2419 83.3235 41.3439 82.8556C42.4459 82.3877 43.6312 82.1476 44.8284 82.1499C46.0674 82.1477 47.2932 82.405 48.4268 82.9052C49.5604 83.4054 50.5767 84.1374 51.4103 85.0541Z" fill="#E535AB"/>
</svg>
