<svg width="100" height="101" viewBox="0 0 100 101" fill="none" xmlns="http://www.w3.org/2000/svg">
<path d="M95.8225 0.0791016H47.6677C47.6677 5.84434 49.958 11.3735 54.0346 15.4501C58.1112 19.5267 63.6403 21.817 69.4055 21.817H78.2762V30.3818C78.284 42.3763 88.0054 52.0981 99.9999 52.1059V4.25654C99.9999 1.95006 98.1301 0.0791016 95.8225 0.0791016Z" fill="#2684FF"/>
<path d="M71.9957 24.0729H23.8412C23.8486 36.0674 33.57 45.7891 45.565 45.797H54.4356V54.3892C54.4509 66.3837 64.179 76.0988 76.1735 76.0988V28.2511C76.1735 25.9438 74.303 24.0733 71.9957 24.0733V24.0729Z" fill="url(#paint0_linear_22_650)"/>
<path d="M48.1548 48.053H0C0 60.0586 9.73272 69.7909 21.7378 69.7909H30.6363V78.3553C30.6442 90.3389 40.3487 100.056 52.3326 100.079V52.2309C52.3326 49.9236 50.4621 48.053 48.1548 48.053Z" fill="url(#paint1_linear_22_650)"/>
<defs>
<linearGradient id="paint0_linear_22_650" x1="75.1431" y1="24.1566" x2="54.7833" y2="45.4012" gradientUnits="userSpaceOnUse">
<stop offset="0.18" stop-color="#0052CC"/>
<stop offset="1" stop-color="#2684FF"/>
</linearGradient>
<linearGradient id="paint1_linear_22_650" x1="52.6807" y1="48.2898" x2="29.1294" y2="71.4611" gradientUnits="userSpaceOnUse">
<stop offset="0.18" stop-color="#0052CC"/>
<stop offset="1" stop-color="#2684FF"/>
</linearGradient>
</defs>
</svg>
