<svg width="101" height="101" viewBox="0 0 101 101" fill="none" xmlns="http://www.w3.org/2000/svg">
<path d="M22.4941 0.376099H77.8631C80.5573 0.376099 83.1735 0.805786 85.7116 1.70422C89.382 3.03235 92.701 5.3761 95.2 8.42297C97.7381 11.4698 99.4171 15.2198 100.003 19.1261C100.237 20.5714 100.276 22.0167 100.276 23.462V77.4855C100.276 79.2042 100.198 80.962 99.8467 82.6417C99.0657 86.5089 97.2305 90.1417 94.5753 93.0714C91.9591 96.0011 88.523 98.1886 84.8135 99.3605C82.5487 100.064 80.2059 100.376 77.824 100.376C76.7697 100.376 22.3379 100.376 21.5179 100.337C17.5351 100.142 13.5913 98.8527 10.2723 96.6261C7.03136 94.4386 4.37615 91.3917 2.65807 87.8761C1.17427 84.8683 0.432376 81.5089 0.432376 78.1495V22.6027C0.354281 19.2823 1.05713 16.0011 2.50188 13.0323C4.18091 9.51672 6.79708 6.43079 10.038 4.24329C13.357 1.97766 17.2617 0.649536 21.2446 0.454224C21.635 0.376099 22.0646 0.376099 22.4941 0.376099Z" fill="url(#paint0_linear_25_436)"/>
<path d="M84.6181 82.173C84.2667 81.6261 83.8762 81.0792 83.4467 80.5714C82.4705 79.3995 81.3381 78.3839 80.0886 77.5245C78.5267 76.4698 76.6915 75.8058 74.8172 75.7277C73.4896 75.6495 72.162 75.8839 70.9125 76.3527C69.663 76.7823 68.4525 77.4073 67.2811 78.0323C65.9145 78.7355 64.5478 79.4386 63.1031 80.0245C61.385 80.7277 59.5888 81.2745 57.7536 81.6652C55.4498 82.0948 53.107 82.2511 50.8032 82.212C46.6251 82.1339 42.4471 81.5089 38.4643 80.337C34.95 79.2823 31.592 77.837 28.4292 76.0011C25.6568 74.3995 23.0797 72.5636 20.6588 70.4933C18.6674 68.7745 16.8321 66.9386 15.1141 64.9855C13.9426 63.6183 12.8103 62.173 11.756 60.6886C11.3265 60.1027 10.936 59.4777 10.5846 58.8527L0.276123 47.7198V22.5245C0.276123 10.298 10.1551 0.376099 22.3768 0.376099H42.0957L56.6993 15.2198C89.6552 37.6417 78.9953 62.3683 78.9953 62.3683C78.9953 62.3683 88.3666 72.9152 84.6181 82.173Z" fill="url(#paint1_linear_25_436)"/>
<path d="M56.7774 15.2198C89.7331 37.6417 79.0733 62.3683 79.0733 62.3683C79.0733 62.3683 88.4446 72.9542 84.657 82.212C84.657 82.212 80.7914 75.7277 74.3095 75.7277C68.062 75.7277 64.3915 82.212 51.8184 82.212C23.8216 82.212 10.5846 58.8136 10.5846 58.8136C35.809 75.4152 53.0288 63.6573 53.0288 63.6573C41.6661 57.0558 17.4959 25.4933 17.4959 25.4933C38.5423 43.423 47.6403 48.1495 47.6403 48.1495C42.2128 43.6574 26.9844 21.7042 26.9844 21.7042C39.1671 34.048 63.3763 51.2745 63.3763 51.2745C70.2486 32.212 56.7774 15.2198 56.7774 15.2198Z" fill="white"/>
<defs>
<linearGradient id="paint0_linear_25_436" x1="59.7416" y1="-3.19226" x2="40.8413" y2="103.954" gradientUnits="userSpaceOnUse">
<stop stop-color="#FAAE42"/>
<stop offset="1" stop-color="#EF3E31"/>
</linearGradient>
<linearGradient id="paint1_linear_25_436" x1="51.2765" y1="1.99172" x2="37.4436" y2="80.4106" gradientUnits="userSpaceOnUse">
<stop stop-color="#E39F3A"/>
<stop offset="1" stop-color="#D33929"/>
</linearGradient>
</defs>
</svg>
